<svg width="86" height="78" viewBox="0 0 86 78" fill="none" xmlns="http://www.w3.org/2000/svg">
<g opacity="0.3">
<mask id="mask0_1_11" style="mask-type:alpha" maskUnits="userSpaceOnUse" x="0" y="0" width="8" height="8">
<path d="M3.90962 7.97735C6.06885 7.97735 7.81925 6.19152 7.81925 3.98865C7.81925 1.78577 6.06885 0 3.90962 0C1.7504 0 0 1.78577 0 3.98865C0 6.19152 1.7504 7.97735 3.90962 7.97735Z" fill="url(#paint0_linear_1_11)"/>
</mask>
<g mask="url(#mask0_1_11)">
<path d="M3.90962 7.97735C6.06885 7.97735 7.81925 6.19152 7.81925 3.98865C7.81925 1.78577 6.06885 0 3.90962 0C1.7504 0 0 1.78577 0 3.98865C0 6.19152 1.7504 7.97735 3.90962 7.97735Z" fill="url(#paint1_linear_1_11)"/>
</g>
<mask id="mask1_1_11" style="mask-type:alpha" maskUnits="userSpaceOnUse" x="21" y="0" width="9" height="8">
<path d="M25.7289 7.97735C27.8881 7.97735 29.6385 6.19152 29.6385 3.98865C29.6385 1.78577 27.8881 0 25.7289 0C23.5697 0 21.8193 1.78577 21.8193 3.98865C21.8193 6.19152 23.5697 7.97735 25.7289 7.97735Z" fill="url(#paint2_linear_1_11)"/>
</mask>
<g mask="url(#mask1_1_11)">
<path d="M25.7293 7.97735C27.8885 7.97735 29.6389 6.19152 29.6389 3.98865C29.6389 1.78577 27.8885 0 25.7293 0C23.57 0 21.8196 1.78577 21.8196 3.98865C21.8196 6.19152 23.57 7.97735 25.7293 7.97735Z" fill="url(#paint3_linear_1_11)"/>
</g>
<mask id="mask2_1_11" style="mask-type:alpha" maskUnits="userSpaceOnUse" x="43" y="0" width="9" height="8">
<path d="M47.5482 7.97735C49.7074 7.97735 51.4578 6.19152 51.4578 3.98865C51.4578 1.78577 49.7074 0 47.5482 0C45.389 0 43.6385 1.78577 43.6385 3.98865C43.6385 6.19152 45.389 7.97735 47.5482 7.97735Z" fill="url(#paint4_linear_1_11)"/>
</mask>
<g mask="url(#mask2_1_11)">
<path d="M47.5489 7.97735C49.7081 7.97735 51.4585 6.19152 51.4585 3.98865C51.4585 1.78577 49.7081 0 47.5489 0C45.3896 0 43.6392 1.78577 43.6392 3.98865C43.6392 6.19152 45.3896 7.97735 47.5489 7.97735Z" fill="url(#paint5_linear_1_11)"/>
</g>
<mask id="mask3_1_11" style="mask-type:alpha" maskUnits="userSpaceOnUse" x="65" y="0" width="9" height="8">
<path d="M69.3675 7.97735C71.5267 7.97735 73.2771 6.19152 73.2771 3.98865C73.2771 1.78577 71.5267 0 69.3675 0C67.2082 0 65.4578 1.78577 65.4578 3.98865C65.4578 6.19152 67.2082 7.97735 69.3675 7.97735Z" fill="url(#paint6_linear_1_11)"/>
</mask>
<g mask="url(#mask3_1_11)">
<path d="M69.3681 7.97735C71.5273 7.97735 73.2777 6.19152 73.2777 3.98865C73.2777 1.78577 71.5273 0 69.3681 0C67.2088 0 65.4584 1.78577 65.4584 3.98865C65.4584 6.19152 67.2088 7.97735 69.3681 7.97735Z" fill="url(#paint7_linear_1_11)"/>
</g>
<mask id="mask4_1_11" style="mask-type:alpha" maskUnits="userSpaceOnUse" x="0" y="29" width="8" height="9">
<path d="M3.90962 37.9546C6.06885 37.9546 7.81925 36.1689 7.81925 33.966C7.81925 31.7631 6.06885 29.9774 3.90962 29.9774C1.7504 29.9774 0 31.7631 0 33.966C0 36.1689 1.7504 37.9546 3.90962 37.9546Z" fill="url(#paint8_linear_1_11)"/>
</mask>
<g mask="url(#mask4_1_11)">
<path d="M3.90962 37.9547C6.06885 37.9547 7.81925 36.1689 7.81925 33.9661C7.81925 31.7632 6.06885 29.9774 3.90962 29.9774C1.7504 29.9774 0 31.7632 0 33.9661C0 36.1689 1.7504 37.9547 3.90962 37.9547Z" fill="url(#paint9_linear_1_11)"/>
</g>
<mask id="mask5_1_11" style="mask-type:alpha" maskUnits="userSpaceOnUse" x="21" y="29" width="9" height="9">
<path d="M25.7289 37.9547C27.8881 37.9547 29.6385 36.169 29.6385 33.9661C29.6385 31.7632 27.8881 29.9774 25.7289 29.9774C23.5697 29.9774 21.8193 31.7632 21.8193 33.9661C21.8193 36.169 23.5697 37.9547 25.7289 37.9547Z" fill="url(#paint10_linear_1_11)"/>
</mask>
<g mask="url(#mask5_1_11)">
<path d="M25.7293 37.9547C27.8885 37.9547 29.6389 36.1689 29.6389 33.966C29.6389 31.7632 27.8885 29.9774 25.7293 29.9774C23.57 29.9774 21.8196 31.7632 21.8196 33.966C21.8196 36.1689 23.57 37.9547 25.7293 37.9547Z" fill="url(#paint11_linear_1_11)"/>
</g>
<mask id="mask6_1_11" style="mask-type:alpha" maskUnits="userSpaceOnUse" x="43" y="29" width="9" height="9">
<path d="M47.5482 37.9547C49.7074 37.9547 51.4578 36.169 51.4578 33.9661C51.4578 31.7632 49.7074 29.9774 47.5482 29.9774C45.389 29.9774 43.6385 31.7632 43.6385 33.9661C43.6385 36.169 45.389 37.9547 47.5482 37.9547Z" fill="url(#paint12_linear_1_11)"/>
</mask>
<g mask="url(#mask6_1_11)">
<path d="M47.5489 37.9547C49.7081 37.9547 51.4585 36.1689 51.4585 33.966C51.4585 31.7632 49.7081 29.9774 47.5489 29.9774C45.3896 29.9774 43.6392 31.7632 43.6392 33.966C43.6392 36.1689 45.3896 37.9547 47.5489 37.9547Z" fill="url(#paint13_linear_1_11)"/>
</g>
<mask id="mask7_1_11" style="mask-type:alpha" maskUnits="userSpaceOnUse" x="65" y="29" width="9" height="9">
<path d="M69.3675 37.9547C71.5267 37.9547 73.2771 36.169 73.2771 33.9661C73.2771 31.7632 71.5267 29.9774 69.3675 29.9774C67.2082 29.9774 65.4578 31.7632 65.4578 33.9661C65.4578 36.169 67.2082 37.9547 69.3675 37.9547Z" fill="url(#paint14_linear_1_11)"/>
</mask>
<g mask="url(#mask7_1_11)">
<path d="M69.3681 37.9547C71.5273 37.9547 73.2777 36.1689 73.2777 33.966C73.2777 31.7632 71.5273 29.9774 69.3681 29.9774C67.2088 29.9774 65.4584 31.7632 65.4584 33.966C65.4584 36.1689 67.2088 37.9547 69.3681 37.9547Z" fill="url(#paint15_linear_1_11)"/>
</g>
<mask id="mask8_1_11" style="mask-type:alpha" maskUnits="userSpaceOnUse" x="0" y="59" width="8" height="9">
<path d="M3.90962 67.9321C6.06885 67.9321 7.81925 66.1463 7.81925 63.9434C7.81925 61.7405 6.06885 59.9547 3.90962 59.9547C1.7504 59.9547 0 61.7405 0 63.9434C0 66.1463 1.7504 67.9321 3.90962 67.9321Z" fill="url(#paint16_linear_1_11)"/>
</mask>
<g mask="url(#mask8_1_11)">
<path d="M3.90962 67.9322C6.06885 67.9322 7.81925 66.1464 7.81925 63.9435C7.81925 61.7406 6.06885 59.9548 3.90962 59.9548C1.7504 59.9548 0 61.7406 0 63.9435C0 66.1464 1.7504 67.9322 3.90962 67.9322Z" fill="url(#paint17_linear_1_11)"/>
</g>
<mask id="mask9_1_11" style="mask-type:alpha" maskUnits="userSpaceOnUse" x="21" y="59" width="9" height="9">
<path d="M25.7289 67.9323C27.8881 67.9323 29.6385 66.1466 29.6385 63.9437C29.6385 61.7408 27.8881 59.955 25.7289 59.955C23.5697 59.955 21.8193 61.7408 21.8193 63.9437C21.8193 66.1466 23.5697 67.9323 25.7289 67.9323Z" fill="url(#paint18_linear_1_11)"/>
</mask>
<g mask="url(#mask9_1_11)">
<path d="M25.7293 67.9322C27.8885 67.9322 29.6389 66.1464 29.6389 63.9435C29.6389 61.7406 27.8885 59.9548 25.7293 59.9548C23.57 59.9548 21.8196 61.7406 21.8196 63.9435C21.8196 66.1464 23.57 67.9322 25.7293 67.9322Z" fill="url(#paint19_linear_1_11)"/>
</g>
<mask id="mask10_1_11" style="mask-type:alpha" maskUnits="userSpaceOnUse" x="43" y="59" width="9" height="9">
<path d="M47.5482 67.9323C49.7074 67.9323 51.4578 66.1466 51.4578 63.9437C51.4578 61.7408 49.7074 59.955 47.5482 59.955C45.389 59.955 43.6385 61.7408 43.6385 63.9437C43.6385 66.1466 45.389 67.9323 47.5482 67.9323Z" fill="url(#paint20_linear_1_11)"/>
</mask>
<g mask="url(#mask10_1_11)">
<path d="M47.5489 67.9322C49.7081 67.9322 51.4585 66.1464 51.4585 63.9435C51.4585 61.7406 49.7081 59.9548 47.5489 59.9548C45.3896 59.9548 43.6392 61.7406 43.6392 63.9435C43.6392 66.1464 45.3896 67.9322 47.5489 67.9322Z" fill="url(#paint21_linear_1_11)"/>
</g>
<mask id="mask11_1_11" style="mask-type:alpha" maskUnits="userSpaceOnUse" x="65" y="59" width="9" height="9">
<path d="M69.3675 67.9323C71.5267 67.9323 73.2771 66.1466 73.2771 63.9437C73.2771 61.7408 71.5267 59.955 69.3675 59.955C67.2082 59.955 65.4578 61.7408 65.4578 63.9437C65.4578 66.1466 67.2082 67.9323 69.3675 67.9323Z" fill="url(#paint22_linear_1_11)"/>
</mask>
<g mask="url(#mask11_1_11)">
<path d="M69.3681 67.9322C71.5273 67.9322 73.2777 66.1464 73.2777 63.9435C73.2777 61.7406 71.5273 59.9548 69.3681 59.9548C67.2088 59.9548 65.4584 61.7406 65.4584 63.9435C65.4584 66.1464 67.2088 67.9322 69.3681 67.9322Z" fill="url(#paint23_linear_1_11)"/>
</g>
</g>
<defs>
<linearGradient id="paint0_linear_1_11" x1="38.076" y1="92.4707" x2="-17.486" y2="-45.7764" gradientUnits="userSpaceOnUse">
<stop stop-color="#FFA434"/>
<stop offset="1" stop-color="#FFA434"/>
</linearGradient>
<linearGradient id="paint1_linear_1_11" x1="38.076" y1="92.4707" x2="-17.486" y2="-45.7764" gradientUnits="userSpaceOnUse">
<stop stop-color="#FFA434"/>
<stop offset="1" stop-color="#FFA434"/>
</linearGradient>
<linearGradient id="paint2_linear_1_11" x1="59.8953" y1="92.4707" x2="4.33333" y2="-45.7764" gradientUnits="userSpaceOnUse">
<stop stop-color="#FFA434"/>
<stop offset="1" stop-color="#FFA434"/>
</linearGradient>
<linearGradient id="paint3_linear_1_11" x1="59.8957" y1="92.4707" x2="4.33369" y2="-45.7764" gradientUnits="userSpaceOnUse">
<stop stop-color="#FFA434"/>
<stop offset="1" stop-color="#FFA434"/>
</linearGradient>
<linearGradient id="paint4_linear_1_11" x1="81.7146" y1="92.4707" x2="26.1526" y2="-45.7764" gradientUnits="userSpaceOnUse">
<stop stop-color="#FFA434"/>
<stop offset="1" stop-color="#FFA434"/>
</linearGradient>
<linearGradient id="paint5_linear_1_11" x1="81.7152" y1="92.4707" x2="26.1533" y2="-45.7764" gradientUnits="userSpaceOnUse">
<stop stop-color="#FFA434"/>
<stop offset="1" stop-color="#FFA434"/>
</linearGradient>
<linearGradient id="paint6_linear_1_11" x1="103.534" y1="92.4707" x2="47.9719" y2="-45.7764" gradientUnits="userSpaceOnUse">
<stop stop-color="#FFA434"/>
<stop offset="1" stop-color="#FFA434"/>
</linearGradient>
<linearGradient id="paint7_linear_1_11" x1="103.534" y1="92.4707" x2="47.9725" y2="-45.7764" gradientUnits="userSpaceOnUse">
<stop stop-color="#FFA434"/>
<stop offset="1" stop-color="#FFA434"/>
</linearGradient>
<linearGradient id="paint8_linear_1_11" x1="38.076" y1="122.447" x2="-17.4851" y2="-15.799" gradientUnits="userSpaceOnUse">
<stop stop-color="#FFA434"/>
<stop offset="1" stop-color="#FFA434"/>
</linearGradient>
<linearGradient id="paint9_linear_1_11" x1="38.076" y1="122.447" x2="-17.4851" y2="-15.7989" gradientUnits="userSpaceOnUse">
<stop stop-color="#FFA434"/>
<stop offset="1" stop-color="#FFA434"/>
</linearGradient>
<linearGradient id="paint10_linear_1_11" x1="59.8953" y1="122.447" x2="4.33427" y2="-15.7989" gradientUnits="userSpaceOnUse">
<stop stop-color="#FFA434"/>
<stop offset="1" stop-color="#FFA434"/>
</linearGradient>
<linearGradient id="paint11_linear_1_11" x1="59.8957" y1="122.447" x2="4.33464" y2="-15.799" gradientUnits="userSpaceOnUse">
<stop stop-color="#FFA434"/>
<stop offset="1" stop-color="#FFA434"/>
</linearGradient>
<linearGradient id="paint12_linear_1_11" x1="81.7146" y1="122.447" x2="26.1535" y2="-15.7989" gradientUnits="userSpaceOnUse">
<stop stop-color="#FFA434"/>
<stop offset="1" stop-color="#FFA434"/>
</linearGradient>
<linearGradient id="paint13_linear_1_11" x1="81.7152" y1="122.447" x2="26.1542" y2="-15.799" gradientUnits="userSpaceOnUse">
<stop stop-color="#FFA434"/>
<stop offset="1" stop-color="#FFA434"/>
</linearGradient>
<linearGradient id="paint14_linear_1_11" x1="103.534" y1="122.447" x2="47.9728" y2="-15.7989" gradientUnits="userSpaceOnUse">
<stop stop-color="#FFA434"/>
<stop offset="1" stop-color="#FFA434"/>
</linearGradient>
<linearGradient id="paint15_linear_1_11" x1="103.534" y1="122.447" x2="47.9734" y2="-15.799" gradientUnits="userSpaceOnUse">
<stop stop-color="#FFA434"/>
<stop offset="1" stop-color="#FFA434"/>
</linearGradient>
<linearGradient id="paint16_linear_1_11" x1="38.076" y1="152.425" x2="-17.486" y2="14.1783" gradientUnits="userSpaceOnUse">
<stop stop-color="#FFA434"/>
<stop offset="1" stop-color="#FFA434"/>
</linearGradient>
<linearGradient id="paint17_linear_1_11" x1="38.076" y1="152.426" x2="-17.486" y2="14.1784" gradientUnits="userSpaceOnUse">
<stop stop-color="#FFA434"/>
<stop offset="1" stop-color="#FFA434"/>
</linearGradient>
<linearGradient id="paint18_linear_1_11" x1="59.8953" y1="152.426" x2="4.33333" y2="14.1786" gradientUnits="userSpaceOnUse">
<stop stop-color="#FFA434"/>
<stop offset="1" stop-color="#FFA434"/>
</linearGradient>
<linearGradient id="paint19_linear_1_11" x1="59.8957" y1="152.426" x2="4.33369" y2="14.1784" gradientUnits="userSpaceOnUse">
<stop stop-color="#FFA434"/>
<stop offset="1" stop-color="#FFA434"/>
</linearGradient>
<linearGradient id="paint20_linear_1_11" x1="81.7146" y1="152.426" x2="26.1526" y2="14.1786" gradientUnits="userSpaceOnUse">
<stop stop-color="#FFA434"/>
<stop offset="1" stop-color="#FFA434"/>
</linearGradient>
<linearGradient id="paint21_linear_1_11" x1="81.7152" y1="152.426" x2="26.1533" y2="14.1784" gradientUnits="userSpaceOnUse">
<stop stop-color="#FFA434"/>
<stop offset="1" stop-color="#FFA434"/>
</linearGradient>
<linearGradient id="paint22_linear_1_11" x1="103.534" y1="152.426" x2="47.9719" y2="14.1786" gradientUnits="userSpaceOnUse">
<stop stop-color="#FFA434"/>
<stop offset="1" stop-color="#FFA434"/>
</linearGradient>
<linearGradient id="paint23_linear_1_11" x1="103.534" y1="152.426" x2="47.9725" y2="14.1784" gradientUnits="userSpaceOnUse">
<stop stop-color="#FFA434"/>
<stop offset="1" stop-color="#FFA434"/>
</linearGradient>
</defs>
</svg>
